<svg id="Layer_1" data-name="Layer 1" xmlns="http://www.w3.org/2000/svg" viewBox="0 0 95.11 95.26"><defs><style>.cls-1{fill:#ff305b;}</style></defs><path class="cls-1" d="M86.1,35.1l2.8-2.8,1.4-1.4c.5-.5.9-.9,1.5-1.6a12.72,12.72,0,0,0,2.9-9.5A16.49,16.49,0,0,0,82.8,5.6a13.2,13.2,0,0,0-9.9.9,4.13,4.13,0,0,0-1.1.7,5,5,0,0,0-1.2.8c-.7.6-1.2,1.1-1.7,1.6L66,12.5,54.3,24.2C46.7,32,39.2,39.6,32,46.9c-3.6,3.7-7.1,7.2-10.5,10.7-1.7,1.7-3.4,3.4-5,5.1-.8.8-1.6,1.7-2.4,2.5l-1.2,1.2c-.4.4-.7.7-1.3,1.4a8.78,8.78,0,0,0-1.2,2.1c-.1.2-.1.4-.2.6l-.1.5-.2.8c-.2,1.1-.5,2.1-.7,3.2-.4,2-.9,4.1-1.3,6-.8,4-1.6,7.7-2.4,11.2v.1a1.1,1.1,0,0,0,0,.8,1.71,1.71,0,0,0,2.2,1.3c9.6-2.4,15.2-3.8,19.8-5.1a1.44,1.44,0,0,0,1.1-1.7,1.53,1.53,0,0,0-1.7-.9L20.3,88a9.8,9.8,0,0,0-3-5.5,11.27,11.27,0,0,0-5-2.9c.3-1.2.6-2.5.9-3.7.3-1,.5-2.1.8-3.2l.2-.8.1-.3a.35.35,0,0,1,.1-.2,2.18,2.18,0,0,1,.5-.8l.1-.1c1,.6,2.3,1.1,3.6,2a24.85,24.85,0,0,1,4.9,3.8,28.15,28.15,0,0,1,3.8,4.9c1,1.7,1.7,3.2,2.4,4.3h.1a2.19,2.19,0,0,1-.5.3,1.71,1.71,0,0,0-.7,1.8c.2.7,1.1,1,2,.6a10.54,10.54,0,0,0,1.1-.7,7.27,7.27,0,0,0,.9-.8c.5-.5,1.1-1,1.7-1.5,1.1-1.1,2.3-2.2,3.5-3.3l7.9-7.6c5.6-5.4,11.9-11.5,18.7-18.1C71.4,49.6,78.6,42.5,86.1,35.1ZM16.2,88.9c-1.9.4-4,.8-6.4,1.3.5-2,1-4,1.5-6.1.7.7,1.5,1.5,2.2,2.3C14.5,87.3,15.4,88.2,16.2,88.9ZM72.9,13.5a10.64,10.64,0,0,1,2.5-2.1,8.19,8.19,0,0,1,6-.5,11.76,11.76,0,0,1,5.5,3.6,11.24,11.24,0,0,1,2.6,5.9A7.76,7.76,0,0,1,87.9,26c-.2.3-.8.8-1.2,1.3l-1.4,1.4-.6.6a19.45,19.45,0,0,0-.5-2,18.29,18.29,0,0,0-4.4-7,19.58,19.58,0,0,0-7-4.4,12.09,12.09,0,0,0-1.8-.5Zm-5.2,5.1c.9.5,2,1,3.1,1.7a22.58,22.58,0,0,1,5,3.9,28.37,28.37,0,0,1,3.9,5,35,35,0,0,1,1.7,3.2c-1.4,1.5-2.9,2.9-4.3,4.4a8.3,8.3,0,0,0-.6-2.1,18.29,18.29,0,0,0-4.4-7,19.58,19.58,0,0,0-7-4.4,12.09,12.09,0,0,0-1.8-.5A57.74,57.74,0,0,0,67.7,18.6Zm-47,49.6a12.88,12.88,0,0,0-2.5-.6L35.6,50.5C42.9,43.3,50.5,35.7,58.3,28l1.9-1.9c.9.5,2,1,3.1,1.7a26.26,26.26,0,0,1,3.9,2.9c-9.9,7.7-32.7,30.4-40.8,40.8A15.93,15.93,0,0,0,20.7,68.2Zm22.5,3.5c-2.7,2.8-5.2,5.5-7.6,7.9-1,1.1-2.1,2.2-3,3.2a18,18,0,0,0-.7-3.5,17.57,17.57,0,0,0-3.3-5.7C39,65.5,61.7,42.7,69.3,32.8a23.68,23.68,0,0,1,2.8,3.9q1.05,1.8,1.8,3.3c-4.4,4.4-8.6,8.8-12.7,12.9C54.7,59.7,48.6,66,43.2,71.7Z" transform="translate(-2.37 -2.42)"/><path class="cls-1" d="M11.6,33.6C17.2,38.8,22,43.2,25.4,46c.2.2.9-.1,1.4-.7s.7-1.1.5-1.3c-1.3-1.6-2.9-3.5-4.8-5.6,2.4-1,4.9-4,4.9-6.1,0,0-.4-.5-1-1.1a9.4,9.4,0,0,0-.9-.8c-2.1,0-4.9,2.4-6,4.7l-4-4.3c2.2-1.2,4.5-3.9,4.5-5.9,0,0-.4-.5-1-1.1a9.4,9.4,0,0,0-.9-.8c-2,0-4.7,2.2-5.8,4.4A18.48,18.48,0,0,0,10.9,26c-.7-.7-1.4-1.5-2.1-2.2l-.5-.6L8,22.9l-.1-.1h0v-.1l7.4-7.4,7.4-7.4h.1l.1.1.3.3.6.5c.7.7,1.5,1.4,2.2,2.1,1.5,1.4,2.9,2.8,4.3,4.1,5.6,5.2,10.4,9.6,13.8,12.3.2.2.9-.1,1.4-.7s.7-1,.5-1.2c-2.7-3.4-7.1-8.3-12.3-13.8-1.3-1.4-2.7-2.8-4.1-4.3-.7-.7-1.4-1.5-2.1-2.2L27,4.5l-.3-.3-.1-.1-.3-.3a5.59,5.59,0,0,0-5.9-.9,3.81,3.81,0,0,0-1.3.9l-.3.2-.1.1-.3.3L16.1,6.7l-4.6,4.6C9.9,13,8.3,14.5,6.8,16L4.5,18.3l-.3.3-.4.4a6,6,0,0,0-.9,1.3,6.55,6.55,0,0,0-.5,3.1,5.17,5.17,0,0,0,1.3,2.8l.3.3.2.1.3.3.6.5c.7.7,1.5,1.4,2.2,2.1C8.8,30.9,10.2,32.3,11.6,33.6Z" transform="translate(-2.37 -2.42)"/><path class="cls-1" d="M97.4,76.6a5.17,5.17,0,0,0-1.3-2.8l-.3-.3-.2-.1-.3-.3-.6-.5c-.7-.7-1.5-1.4-2.2-2.1-1.5-1.4-2.9-2.8-4.3-4.1C82.8,61.2,78,56.8,74.6,54c-.2-.2-.9.1-1.4.7s-.7,1.1-.5,1.3c2.7,3.4,7.1,8.3,12.3,13.8,1.3,1.4,2.7,2.8,4.1,4.3.7.7,1.4,1.5,2.1,2.2l.5.6.3.3.1.1h0v.1l-7.4,7.4-7.4,7.4h-.1l-.1-.2-.3-.3-.6-.5c-.7-.7-1.5-1.4-2.2-2.1a16.61,16.61,0,0,0-1.4-1.3C74.8,86.6,77,83.9,77,82c0,0-.4-.5-1-1.1a9.4,9.4,0,0,0-.9-.8c-2,0-4.8,2.3-5.9,4.5l-4.3-4c2.3-1.1,4.7-3.9,4.7-6,0,0-.4-.5-1-1.1a9.4,9.4,0,0,0-.9-.8c-2.1,0-5.1,2.6-6.1,4.9-2.1-1.9-4.1-3.5-5.6-4.8-.2-.2-.9.1-1.4.7s-.7,1-.5,1.2c2.7,3.4,7.1,8.3,12.3,13.8,1.3,1.4,2.7,2.8,4.1,4.3.7.7,1.4,1.5,2.1,2.2l.5.6.3.3.1.1.3.3a5.59,5.59,0,0,0,5.9.9,3.81,3.81,0,0,0,1.3-.9l.3-.2.1-.1.3-.3L84,93.4l4.6-4.6,4.6-4.6,2.3-2.3.3-.3.4-.4a6,6,0,0,0,.9-1.3A7.69,7.69,0,0,0,97.4,76.6Z" transform="translate(-2.37 -2.42)"/></svg>